HIERARCHY
ROOT base
{
	OFFSET 0.0 0.0 0.0
	CHANNELS 6 Xposition Yposition Zposition Zrotation Yrotation Xrotation
	JOINT root
	{
		OFFSET 0 0 0
		CHANNELS 6 Xposition Yposition Zposition Zrotation Yrotation Xrotation
		JOINT chest
		{
			OFFSET 0 4.72302 0
			CHANNELS 3 Zrotation Yrotation Xrotation
			JOINT neck
			{
				OFFSET 0 4.47788 0
				CHANNELS 3 Zrotation Yrotation Xrotation
				End Site
				{
					OFFSET 0.0 0.0 0.0
				}
			}
			JOINT right_shoulder
			{
				OFFSET -0.481 4.87 3.6622
				CHANNELS 3 Zrotation Yrotation Xrotation
				JOINT right_elbow
				{
					OFFSET 0 -5.49576 0
					CHANNELS 3 Zrotation Yrotation Xrotation
					JOINT right_wrist
					{
						OFFSET 0 -5.17894 0
						CHANNELS 3 Zrotation Yrotation Xrotation
						End Site
						{
							OFFSET 0.0 0.0 0.0
						}
					}
				}
			}
			JOINT left_shoulder
			{
				OFFSET -0.481 4.87 -3.6622
				CHANNELS 3 Zrotation Yrotation Xrotation
				JOINT left_elbow
				{
					OFFSET 0 -5.49576 0
					CHANNELS 3 Zrotation Yrotation Xrotation
					JOINT left_wrist
					{
						OFFSET 0 -5.17894 0
						CHANNELS 3 Zrotation Yrotation Xrotation
						End Site
						{
							OFFSET 0.0 0.0 0.0
						}
					}
				}
			}
		}
		JOINT right_hip
		{
			OFFSET 0 0 1.69774
			CHANNELS 3 Zrotation Yrotation Xrotation
			JOINT right_knee
			{
				OFFSET 0 -8.43092 0
				CHANNELS 3 Zrotation Yrotation Xrotation
				JOINT right_ankle
				{
					OFFSET 0 -8.1974 0
					CHANNELS 3 Zrotation Yrotation Xrotation
					End Site
					{
						OFFSET 0.0 0.0 0.0
					}
				}
			}
		}
		JOINT left_hip
		{
			OFFSET 0 0 -1.69774
			CHANNELS 3 Zrotation Yrotation Xrotation
			JOINT left_knee
			{
				OFFSET 0 -8.43092 0
				CHANNELS 3 Zrotation Yrotation Xrotation
				JOINT left_ankle
				{
					OFFSET 0 -8.1974 0
					CHANNELS 3 Zrotation Yrotation Xrotation
					End Site
					{
						OFFSET 0.0 0.0 0.0
					}
				}
			}
		}
	}
	JOINT red_arrow
	{
		OFFSET 0 0 0
		CHANNELS 3 Zrotation Yrotation Xrotation
		End Site
		{
			OFFSET 0.0 0.0 0.0
		}
	}
	JOINT blue_arrow
	{
		OFFSET 0 0 0
		CHANNELS 3 Zrotation Yrotation Xrotation
		End Site
		{
			OFFSET 0.0 0.0 0.0
		}
	}
}
MOTION
Frames: 14
Frame Time: 0.0333333333333333
0 18.08466 0 0 0 0 0 0 0 0 -90 0 0 0 0 0 0 0 0 0 -90 0 0 0 0 0 0 0 0 90 0 0 0 0 0 0 0 0 0 0 0 0 0 0 0 0 0 0 0 0 0 0 0 0 0 0 0 0 0 0
0.813812009990215 0 0.0765736987814307 0 0.370631546354604 0 0 16.9754148960114 0 -5.77867255232219 4.37947470787457E-16 0.328576992209703 -0.595712767400469 -5.5892733792299 1.18190385811638 0.173734317994415 0.392125806257705 -0.174017179614056 -13.8377395699208 11.9066706813694 -8.49137401266348 9.84449166961736 0 0 0 0 0 7.60243073680555 -16.7141960975301 19.2232879730731 33.2864658822882 0 0 0 0 0 26.7595565040356 -5.70790596072789 2.99063495777109 -13.1691724792593 0 0 -5.65010294927891 2.34630581128332 -5.13322917677027 -7.41279395935982 9.41027876767631 -0.675330575736053 -27.4695045397955 0 0 11.1611232913258 -7.95005095625122 10.5446239540058 0 0 0 0 0 0
1.49207540005445 0 0.214425712823868 0 0.321677156788596 0 0 17.0014663815498 0 -6.44932716501269 -0.924248155812334 -1.96163272091475 -0.687375218566857 -5.07726084197729 1.72439220666612 -0.212847557179624 0.96082601180538 -0.300867144872406 -11.7706155669787 13.7574811648943 -8.38999066720948 10.502293528203 0 0 0 0 0 5.96714813591255 -15.1913781478242 18.0520978662853 32.8203840186102 0 0 0 0 0 25.4187230680859 -4.09781855192578 6.1314425020436 -13.7289329487249 0 0 -5.43871987967267 0.458118379426201 -5.07124422500532 -3.38239726967273 9.75098084111508 2.90336480163125 -32.3087857743034 0 0 7.38056800472388 -8.49956173348128 10.2775874177692 0 0 0 0 0 0
2.19641307145357 0 0.267938348650932 0 0.26449067514001 0 0 17.0907234787941 0 -6.35474607856989 -1.07986863640767 -3.34798840209741 -0.119635024093192 -5.5732788339963 1.6749809264609 -0.673044391747682 0.360048359803666 -0.946266845103542 -10.3328754857517 15.7261868394408 -8.50090715279652 11.4650556492668 0 0 0 0 0 3.79975245426685 -13.0909103414129 16.5502427673815 31.4556405054554 0 0 0 0 0 23.0159015243722 -3.61946935527688 7.75422217413475 -14.0912189889071 0 0 -2.77011334051062 -0.121736965054625 -5.0126847547734 0.81494438337572 9.2032862986048 5.21156773279862 -38.9972826699842 0 0 2.95909810153341 -8.99750228303599 8.95564807454313 0 0 0 0 0 0
2.90396526306868 0 0.273070914298296 0 0.236396053653768 0 0 17.1634232759476 0 -5.83558796996219 -0.531031692359167 -4.29637546611003 0.741129109848692 -5.92892165177354 1.47850605533974 -0.575090996172614 -0.367571284128628 -1.21028168090762 -8.71372408076483 17.7159968935846 -8.63178510913884 12.2332641006911 0 0 0 0 0 1.84935381798419 -10.4033266594643 14.9792002655884 29.6203072037705 0 0 0 0 0 20.4061471090715 -3.12792618041119 8.61867096201953 -14.8306339241115 0 0 0.142066553915298 -1.08580428284803 -4.79244728161355 5.66574859188935 7.89443612512258 7.25818946823347 -48.005636241787 0 0 -1.33031289713092 -9.33902359696945 6.68849421514978 0 0 0 0 0 0
3.59537015259266 0 0.23891817368567 0 0.271285743883992 0 0 17.2234066605568 0 -5.16738617508271 0.660210196349023 -4.90886311604111 1.60221021314462 -6.18972901136406 1.22522975062523 -0.414832041668482 -1.00558012686865 -1.29361074157358 -6.90576915926492 19.7014665401036 -8.95302704198548 13.1083035409235 0 0 0 0 0 -0.0394728185634834 -7.34149544655188 13.7077823978425 27.3327146337404 0 0 0 0 0 17.4277155919991 -3.41310583147833 8.87212885869844 -15.2619040211372 0 0 2.89611488672881 -1.72065574306356 -4.56064292962939 10.8251436337769 5.81747567439608 9.2201902885972 -58.1576196127437 0 0 -5.90746930001511 -9.10814144225304 4.48755998207735 0 0 0 0 0 0
4.26864076852798 0 0.15799034498632 0 0.372456637738765 0 0 17.2753706812859 0 -4.45146937938353 1.91645272592008 -5.14028883006278 2.33970078660745 -6.15091870945495 0.957033322370025 -0.260875555311316 -1.58409333041411 -1.20078166675648 -5.03738453370425 21.5013551535458 -9.44166475605129 14.3292058314788 0 0 0 0 0 -1.87356418340405 -4.421795241349 12.801503624574 24.5037066285818 0 0 0 0 0 14.1414531849379 -3.84679858882466 8.68956063097286 -15.1016165567899 0 0 5.2867748711309 -2.15647192007752 -4.23828190184287 15.8281588578683 3.45168953390527 10.8304215891305 -68.1682248980704 0 0 -11.1944417154959 -8.27432088503271 2.35893091800687 0 0 0 0 0 0
4.91815517470241 0 0.0270027704536915 0 0.522232263162936 0 0 17.3214341163635 0 -3.79028844177782 2.83952256476246 -4.91973267426769 2.78393186996216 -5.76340989064007 0.521117974158504 -0.0859410309784279 -2.06358503097751 -1.00820271118538 -3.2256102997156 23.1025399993892 -10.0552403354525 15.9378622300839 0 0 0 0 0 -3.60835603313881 -1.88148615793823 12.1672893254762 21.5033121016746 0 0 0 0 0 10.7617291341101 -4.108576148793 8.06305753516142 -14.3797748445463 0 0 7.26822392110885 -2.3843487245353 -3.78654290340769 20.4427490821097 1.40788336793467 11.8380751343696 -76.46514255083 0 0 -14.6780774340101 -6.75771319301063 1.3146387662067 0 0 0 0 0 0
5.53870949596167 0 -0.142838710546494 0 0.708395420976508 0 0 17.3655915379524 0 -3.29217240611294 3.53127740498958 -4.27948086940242 2.77807715118315 -5.21903559227826 -0.303196356732639 0.0820909685610809 -2.41009999670589 -0.756416179938873 -1.42485258029559 24.5977057572811 -10.827377888616 18.0519475046282 0 0 0 0 0 -5.2916804531623 0.365064006439863 11.8728882530539 18.7396843747986 0 0 0 0 0 7.28677918505082 -4.56244883884539 6.96858762233027 -12.905297512186 0 0 8.73775678786434 -2.21463991762635 -3.20912177070286 24.9008899963506 0.0981718349494585 12.2413246759413 -81.6773623593043 0 0 -14.8874325871304 -4.55788434585309 1.34315890758507 0 0 0 0 0 0
6.123938806355 0 -0.34319441691041 0 0.927615078774599 0 0 17.4022892713547 0 -3.12641414876245 4.15899596139281 -3.33657172056202 2.46284832001363 -4.52223047566597 -1.41706468368026 0.169360944328117 -2.51280656443621 -0.554453137525704 0.57190142711727 26.1190606048778 -11.9452598306471 20.6457955117578 0 0 0 0 0 -7.0895478271484 2.58067960922614 11.9885678567205 16.4273784728042 0 0 0 0 0 3.95732275028385 -5.49155293875544 5.49921349016264 -10.7997730259927 0 0 9.75342405799642 -1.64764062153609 -2.48548409472034 29.7297223775254 -0.259751106520486 12.0332765277045 -82.8261250456195 0 0 -12.0754583755428 -2.02037485655853 2.16772771055783 0 0 0 0 0 0
6.68355112522841 0 -0.550938769429922 0 1.18792653852079 0 0 17.415704369545 0 -3.21115268726193 4.93819047877278 -2.39794395050461 1.77861451669681 -3.62298508650187 -2.53879626705072 0.101098181442332 -2.20147926090753 -0.353578918665466 3.05459311944742 27.7425450229575 -13.3043011718263 23.6312438772137 0 0 0 0 0 -8.99367765546623 4.9719514089478 12.5404271320124 14.6122335027585 0 0 0 0 0 0.767236266611567 -7.04472736616863 4.07145652671042 -8.31605925790859 0 0 10.5063329045186 -0.831588496643798 -1.66467869447404 34.8888927378389 0.234441200691942 11.5778912479832 -79.4880271831267 0 0 -6.98164616701796 0.805658056136196 3.54547983304703 0 0 0 0 0 0
7.22729802131653 0 -0.753381459787488 0 1.4995422121805 0 0 17.3947437524796 0 -3.54178420903477 5.90946944118615 -1.67101078314188 0.79665189619137 -2.53366392634512 -3.52637438784031 -0.0620416211207883 -1.48305200318317 -0.132183927337003 6.18603194762171 29.7010790985487 -14.7976407254334 26.7474835350862 0 0 0 0 0 -11.078247835203 7.68565862302316 13.3573578810198 13.1140665130357 0 0 0 0 0 -2.21858990196432 -8.96411026771077 3.00374566319875 -5.67428936290164 0 0 11.1549481053233 -0.0664882451888681 -0.804682193326691 40.020359188677 1.42685589639891 10.9394632576919 -71.8535764081558 0 0 -1.04388326579858 3.48369441257681 4.23933080385316 0 0 0 0 0 0
7.76249020397663 0 -0.952679562196135 0 1.8582973284533 0 0 17.3365587949753 0 -4.21035144851348 6.79812384171846 -1.17604238776354 -0.359249304811456 -1.36634909824358 -4.48144210219254 -0.196269067253797 -0.501696550988751 8.11224889901962E-05 9.73038722007988 31.8495814497182 -16.4682474687209 29.8076217266635 0 0 0 0 0 -13.2318586615494 10.2746227046734 14.2407154541969 11.7439237353419 0 0 0 0 0 -4.70892898787711 -11.0669835192394 2.27328253954569 -3.32251243802391 0 0 11.9297564204187 0.779305532852025 0.119716190711666 44.2030913082241 3.26282772878601 10.0017841576215 -60.5762237487911 0 0 3.33143333047569 5.78200566147952 4.42781448308624 0 0 0 0 0 0
8.30948216468096 0 -1.15245443247259 0 2.24854085795885 0 0 17.2381407618523 0 -5.15960958425398 7.38491560649324 -0.962775503426895 -1.6536219648396 -0.472400337881434 -5.41684748819005 -0.344929042872018 0.559502262591664 -0.132664646178569 13.0142238368822 33.6118473520187 -18.0328120795777 32.4086158192123 0 0 0 0 0 -15.1737695223431 12.0200243823396 14.6978049709164 10.5765214627817 0 0 0 0 0 -6.47426206655285 -12.7964645688727 1.80802437032774 -1.96354961278444 0 0 13.237855633271 1.42934700233761 1.07132736334642 46.3771505890837 5.05294254144977 8.71506940183719 -47.6991246725935 0 0 4.35083595016489 7.18867975421139 3.80578462803796 0 0 0 0 0 0
